<mxfile host="app.diagrams.net" modified="2021-04-15T12:07:06.194Z" agent="5.0 (Macintosh; Intel Mac OS X 10_15_7) AppleWebKit/537.36 (KHTML, like Gecko) Chrome/89.0.4389.114 Safari/537.36" etag="912tvioX0bDKwT-r58KG" version="14.4.7" type="github">
  <diagram id="C5RBs43oDa-KdzZeNtuy" name="Page-1">
    <mxGraphModel dx="1940" dy="760" grid="1" gridSize="10" guides="1" tooltips="1" connect="1" arrows="1" fold="1" page="1" pageScale="1" pageWidth="827" pageHeight="1169" math="0" shadow="0">
      <root>
        <mxCell id="WIyWlLk6GJQsqaUBKTNV-0" />
        <mxCell id="WIyWlLk6GJQsqaUBKTNV-1" parent="WIyWlLk6GJQsqaUBKTNV-0" />
        <mxCell id="IoR6Snpq3EkC3o9elw1q-48" style="edgeStyle=orthogonalEdgeStyle;rounded=0;orthogonalLoop=1;jettySize=auto;html=1;exitX=0.5;exitY=1;exitDx=0;exitDy=0;entryX=0.5;entryY=0;entryDx=0;entryDy=0;" edge="1" parent="WIyWlLk6GJQsqaUBKTNV-1" source="zkfFHV4jXpPFQw0GAbJ--0" target="IoR6Snpq3EkC3o9elw1q-46">
          <mxGeometry relative="1" as="geometry" />
        </mxCell>
        <mxCell id="zkfFHV4jXpPFQw0GAbJ--0" value="App" style="swimlane;fontStyle=3;align=center;verticalAlign=top;childLayout=stackLayout;horizontal=1;startSize=26;horizontalStack=0;resizeParent=1;resizeLast=0;collapsible=1;marginBottom=0;rounded=0;shadow=0;strokeWidth=1;" parent="WIyWlLk6GJQsqaUBKTNV-1" vertex="1">
          <mxGeometry x="290" y="10" width="160" height="50" as="geometry">
            <mxRectangle x="230" y="140" width="160" height="26" as="alternateBounds" />
          </mxGeometry>
        </mxCell>
        <mxCell id="IoR6Snpq3EkC3o9elw1q-10" value="mockData: Object" style="text;html=1;align=center;verticalAlign=middle;resizable=0;points=[];autosize=1;" vertex="1" parent="zkfFHV4jXpPFQw0GAbJ--0">
          <mxGeometry y="26" width="160" height="20" as="geometry" />
        </mxCell>
        <mxCell id="IoR6Snpq3EkC3o9elw1q-23" style="edgeStyle=orthogonalEdgeStyle;rounded=0;orthogonalLoop=1;jettySize=auto;html=1;exitX=0.5;exitY=1;exitDx=0;exitDy=0;entryX=0.5;entryY=0;entryDx=0;entryDy=0;" edge="1" parent="WIyWlLk6GJQsqaUBKTNV-1" source="IoR6Snpq3EkC3o9elw1q-1" target="IoR6Snpq3EkC3o9elw1q-8">
          <mxGeometry relative="1" as="geometry" />
        </mxCell>
        <mxCell id="IoR6Snpq3EkC3o9elw1q-24" style="edgeStyle=orthogonalEdgeStyle;rounded=0;orthogonalLoop=1;jettySize=auto;html=1;exitX=0.5;exitY=1;exitDx=0;exitDy=0;entryX=0.5;entryY=0;entryDx=0;entryDy=0;" edge="1" parent="WIyWlLk6GJQsqaUBKTNV-1" source="IoR6Snpq3EkC3o9elw1q-1" target="IoR6Snpq3EkC3o9elw1q-11">
          <mxGeometry relative="1" as="geometry" />
        </mxCell>
        <mxCell id="IoR6Snpq3EkC3o9elw1q-25" style="edgeStyle=orthogonalEdgeStyle;rounded=0;orthogonalLoop=1;jettySize=auto;html=1;exitX=0.5;exitY=1;exitDx=0;exitDy=0;entryX=0.5;entryY=0;entryDx=0;entryDy=0;" edge="1" parent="WIyWlLk6GJQsqaUBKTNV-1" source="IoR6Snpq3EkC3o9elw1q-1" target="IoR6Snpq3EkC3o9elw1q-13">
          <mxGeometry relative="1" as="geometry" />
        </mxCell>
        <mxCell id="IoR6Snpq3EkC3o9elw1q-1" value="&lt;p style=&quot;margin: 0px ; margin-top: 6px ; text-align: center&quot;&gt;&lt;b&gt;Header&lt;/b&gt;&lt;/p&gt;&lt;hr&gt;&lt;p style=&quot;margin: 0px ; margin-left: 8px&quot;&gt;+ profileItems: Array&lt;/p&gt;&lt;p style=&quot;margin: 0px 0px 0px 8px&quot;&gt;+ users: Array&lt;/p&gt;&lt;p style=&quot;margin: 0px 0px 0px 8px&quot;&gt;+ currentUserId: number&lt;/p&gt;" style="align=left;overflow=fill;html=1;dropTarget=0;" vertex="1" parent="WIyWlLk6GJQsqaUBKTNV-1">
          <mxGeometry x="140" y="140" width="150" height="80" as="geometry" />
        </mxCell>
        <mxCell id="IoR6Snpq3EkC3o9elw1q-52" style="edgeStyle=orthogonalEdgeStyle;rounded=0;orthogonalLoop=1;jettySize=auto;html=1;exitX=1;exitY=0.5;exitDx=0;exitDy=0;entryX=0;entryY=0.5;entryDx=0;entryDy=0;" edge="1" parent="WIyWlLk6GJQsqaUBKTNV-1" source="IoR6Snpq3EkC3o9elw1q-4" target="IoR6Snpq3EkC3o9elw1q-51">
          <mxGeometry relative="1" as="geometry" />
        </mxCell>
        <mxCell id="IoR6Snpq3EkC3o9elw1q-58" style="edgeStyle=orthogonalEdgeStyle;rounded=0;orthogonalLoop=1;jettySize=auto;html=1;exitX=0.5;exitY=1;exitDx=0;exitDy=0;entryX=0.5;entryY=0;entryDx=0;entryDy=0;" edge="1" parent="WIyWlLk6GJQsqaUBKTNV-1" source="IoR6Snpq3EkC3o9elw1q-4" target="IoR6Snpq3EkC3o9elw1q-57">
          <mxGeometry relative="1" as="geometry" />
        </mxCell>
        <mxCell id="IoR6Snpq3EkC3o9elw1q-59" style="edgeStyle=orthogonalEdgeStyle;rounded=0;orthogonalLoop=1;jettySize=auto;html=1;exitX=0.5;exitY=1;exitDx=0;exitDy=0;entryX=0.5;entryY=0;entryDx=0;entryDy=0;" edge="1" parent="WIyWlLk6GJQsqaUBKTNV-1" source="IoR6Snpq3EkC3o9elw1q-4" target="IoR6Snpq3EkC3o9elw1q-56">
          <mxGeometry relative="1" as="geometry" />
        </mxCell>
        <mxCell id="IoR6Snpq3EkC3o9elw1q-60" style="edgeStyle=orthogonalEdgeStyle;rounded=0;orthogonalLoop=1;jettySize=auto;html=1;exitX=0.5;exitY=1;exitDx=0;exitDy=0;entryX=0.5;entryY=0;entryDx=0;entryDy=0;" edge="1" parent="WIyWlLk6GJQsqaUBKTNV-1" source="IoR6Snpq3EkC3o9elw1q-4" target="IoR6Snpq3EkC3o9elw1q-55">
          <mxGeometry relative="1" as="geometry" />
        </mxCell>
        <mxCell id="IoR6Snpq3EkC3o9elw1q-61" style="edgeStyle=orthogonalEdgeStyle;rounded=0;orthogonalLoop=1;jettySize=auto;html=1;exitX=0.5;exitY=1;exitDx=0;exitDy=0;entryX=0.5;entryY=0;entryDx=0;entryDy=0;" edge="1" parent="WIyWlLk6GJQsqaUBKTNV-1" source="IoR6Snpq3EkC3o9elw1q-4" target="IoR6Snpq3EkC3o9elw1q-54">
          <mxGeometry relative="1" as="geometry" />
        </mxCell>
        <mxCell id="IoR6Snpq3EkC3o9elw1q-62" style="edgeStyle=orthogonalEdgeStyle;rounded=0;orthogonalLoop=1;jettySize=auto;html=1;exitX=0.5;exitY=1;exitDx=0;exitDy=0;entryX=0.5;entryY=0;entryDx=0;entryDy=0;" edge="1" parent="WIyWlLk6GJQsqaUBKTNV-1" source="IoR6Snpq3EkC3o9elw1q-4" target="IoR6Snpq3EkC3o9elw1q-53">
          <mxGeometry relative="1" as="geometry" />
        </mxCell>
        <mxCell id="IoR6Snpq3EkC3o9elw1q-4" value="&lt;p style=&quot;margin: 0px ; margin-top: 6px ; text-align: center&quot;&gt;&lt;b&gt;Content&lt;/b&gt;&lt;/p&gt;&lt;hr&gt;&lt;p style=&quot;margin: 0px ; margin-left: 8px&quot;&gt;+ messages: Array&lt;br&gt;+ dialogs: Array&lt;/p&gt;&lt;p style=&quot;margin: 0px ; margin-left: 8px&quot;&gt;+ posts: Array&lt;/p&gt;&lt;p style=&quot;margin: 0px ; margin-left: 8px&quot;&gt;+ currentUserId: number&lt;/p&gt;&lt;p style=&quot;margin: 0px ; margin-left: 8px&quot;&gt;+ users: Array&lt;/p&gt;" style="align=left;overflow=fill;html=1;dropTarget=0;" vertex="1" parent="WIyWlLk6GJQsqaUBKTNV-1">
          <mxGeometry x="460" y="130" width="180" height="110" as="geometry" />
        </mxCell>
        <mxCell id="IoR6Snpq3EkC3o9elw1q-8" value="&lt;p style=&quot;margin: 0px ; margin-top: 6px ; text-align: center&quot;&gt;&lt;b&gt;Logo&lt;/b&gt;&lt;/p&gt;&lt;hr&gt;&lt;p style=&quot;margin: 0px ; margin-left: 8px&quot;&gt;&lt;br&gt;&lt;/p&gt;" style="align=left;overflow=fill;html=1;dropTarget=0;" vertex="1" parent="WIyWlLk6GJQsqaUBKTNV-1">
          <mxGeometry x="-109" y="290" width="109" height="50" as="geometry" />
        </mxCell>
        <mxCell id="IoR6Snpq3EkC3o9elw1q-32" style="edgeStyle=orthogonalEdgeStyle;rounded=0;orthogonalLoop=1;jettySize=auto;html=1;exitX=0.5;exitY=1;exitDx=0;exitDy=0;entryX=0.5;entryY=0;entryDx=0;entryDy=0;" edge="1" parent="WIyWlLk6GJQsqaUBKTNV-1" source="IoR6Snpq3EkC3o9elw1q-11" target="IoR6Snpq3EkC3o9elw1q-30">
          <mxGeometry relative="1" as="geometry" />
        </mxCell>
        <mxCell id="IoR6Snpq3EkC3o9elw1q-33" style="edgeStyle=orthogonalEdgeStyle;rounded=0;orthogonalLoop=1;jettySize=auto;html=1;exitX=0.5;exitY=1;exitDx=0;exitDy=0;entryX=0.5;entryY=0;entryDx=0;entryDy=0;" edge="1" parent="WIyWlLk6GJQsqaUBKTNV-1" source="IoR6Snpq3EkC3o9elw1q-11" target="IoR6Snpq3EkC3o9elw1q-28">
          <mxGeometry relative="1" as="geometry" />
        </mxCell>
        <mxCell id="IoR6Snpq3EkC3o9elw1q-11" value="&lt;p style=&quot;margin: 0px ; margin-top: 6px ; text-align: center&quot;&gt;&lt;b&gt;UserCard&lt;/b&gt;&lt;/p&gt;&lt;hr&gt;&lt;p style=&quot;margin: 0px ; margin-left: 8px&quot;&gt;+ profileItems: Array&lt;/p&gt;&lt;p style=&quot;margin: 0px 0px 0px 8px&quot;&gt;+ users: Array&lt;/p&gt;&lt;p style=&quot;margin: 0px 0px 0px 8px&quot;&gt;+ currentUserId: number&lt;/p&gt;" style="align=left;overflow=fill;html=1;dropTarget=0;" vertex="1" parent="WIyWlLk6GJQsqaUBKTNV-1">
          <mxGeometry x="20" y="290" width="150" height="80" as="geometry" />
        </mxCell>
        <mxCell id="IoR6Snpq3EkC3o9elw1q-39" style="edgeStyle=orthogonalEdgeStyle;rounded=0;orthogonalLoop=1;jettySize=auto;html=1;exitX=0.5;exitY=1;exitDx=0;exitDy=0;entryX=0.5;entryY=0;entryDx=0;entryDy=0;" edge="1" parent="WIyWlLk6GJQsqaUBKTNV-1" source="IoR6Snpq3EkC3o9elw1q-13" target="IoR6Snpq3EkC3o9elw1q-37">
          <mxGeometry relative="1" as="geometry" />
        </mxCell>
        <mxCell id="IoR6Snpq3EkC3o9elw1q-13" value="&lt;p style=&quot;margin: 0px ; margin-top: 6px ; text-align: center&quot;&gt;&lt;b&gt;Nav&lt;/b&gt;&lt;/p&gt;&lt;hr&gt;&lt;p style=&quot;margin: 0px ; margin-left: 8px&quot;&gt;&lt;br&gt;&lt;/p&gt;" style="align=left;overflow=fill;html=1;dropTarget=0;" vertex="1" parent="WIyWlLk6GJQsqaUBKTNV-1">
          <mxGeometry x="200" y="290" width="109" height="50" as="geometry" />
        </mxCell>
        <mxCell id="IoR6Snpq3EkC3o9elw1q-28" value="&lt;p style=&quot;margin: 0px ; margin-top: 6px ; text-align: center&quot;&gt;&lt;b&gt;ProfileItem&lt;/b&gt;&lt;/p&gt;&lt;hr&gt;&lt;p style=&quot;margin: 0px ; margin-left: 8px&quot;&gt;- number: Number&lt;/p&gt;&lt;p style=&quot;margin: 0px ; margin-left: 8px&quot;&gt;- name: String&lt;/p&gt;&lt;p style=&quot;margin: 0px ; margin-left: 8px&quot;&gt;- id: Number&lt;/p&gt;" style="align=left;overflow=fill;html=1;dropTarget=0;rounded=0;glass=0;shadow=1;sketch=0;" vertex="1" parent="WIyWlLk6GJQsqaUBKTNV-1">
          <mxGeometry x="-140" y="440" width="120" height="80" as="geometry" />
        </mxCell>
        <mxCell id="IoR6Snpq3EkC3o9elw1q-30" value="&lt;p style=&quot;margin: 0px ; margin-top: 6px ; text-align: center&quot;&gt;&lt;b&gt;Avatar&lt;/b&gt;&lt;/p&gt;&lt;hr&gt;&lt;p style=&quot;margin: 0px ; margin-left: 8px&quot;&gt;- users: Array&lt;/p&gt;&lt;p style=&quot;margin: 0px ; margin-left: 8px&quot;&gt;- currentUserId: number&lt;/p&gt;" style="align=left;overflow=fill;html=1;dropTarget=0;" vertex="1" parent="WIyWlLk6GJQsqaUBKTNV-1">
          <mxGeometry x="10" y="440" width="140" height="70" as="geometry" />
        </mxCell>
        <mxCell id="IoR6Snpq3EkC3o9elw1q-42" style="edgeStyle=orthogonalEdgeStyle;rounded=0;orthogonalLoop=1;jettySize=auto;html=1;exitX=0.5;exitY=1;exitDx=0;exitDy=0;entryX=0.5;entryY=0;entryDx=0;entryDy=0;" edge="1" parent="WIyWlLk6GJQsqaUBKTNV-1" source="IoR6Snpq3EkC3o9elw1q-37" target="IoR6Snpq3EkC3o9elw1q-40">
          <mxGeometry relative="1" as="geometry" />
        </mxCell>
        <mxCell id="IoR6Snpq3EkC3o9elw1q-37" value="&lt;p style=&quot;margin: 0px ; margin-top: 6px ; text-align: center&quot;&gt;&lt;b&gt;NavItem&lt;/b&gt;&lt;/p&gt;&lt;hr&gt;&lt;p style=&quot;margin: 0px ; margin-left: 8px&quot;&gt;- name: String&lt;/p&gt;&lt;p style=&quot;margin: 0px ; margin-left: 8px&quot;&gt;- href: String&lt;/p&gt;&lt;p style=&quot;margin: 0px ; margin-left: 8px&quot;&gt;- icon: SVG&lt;/p&gt;" style="align=left;overflow=fill;html=1;dropTarget=0;shadow=1;" vertex="1" parent="WIyWlLk6GJQsqaUBKTNV-1">
          <mxGeometry x="165.5" y="400" width="109" height="80" as="geometry" />
        </mxCell>
        <mxCell id="IoR6Snpq3EkC3o9elw1q-45" style="edgeStyle=orthogonalEdgeStyle;rounded=0;orthogonalLoop=1;jettySize=auto;html=1;exitX=0;exitY=0.5;exitDx=0;exitDy=0;entryX=1;entryY=0.5;entryDx=0;entryDy=0;" edge="1" parent="WIyWlLk6GJQsqaUBKTNV-1" source="IoR6Snpq3EkC3o9elw1q-40" target="IoR6Snpq3EkC3o9elw1q-43">
          <mxGeometry relative="1" as="geometry" />
        </mxCell>
        <mxCell id="IoR6Snpq3EkC3o9elw1q-40" value="&lt;p style=&quot;margin: 0px ; margin-top: 6px ; text-align: center&quot;&gt;&lt;b&gt;NavLink&lt;/b&gt;&lt;/p&gt;&lt;hr&gt;&lt;p style=&quot;margin: 0px ; margin-left: 8px&quot;&gt;&lt;br&gt;&lt;/p&gt;" style="align=left;overflow=fill;html=1;dropTarget=0;shadow=0;" vertex="1" parent="WIyWlLk6GJQsqaUBKTNV-1">
          <mxGeometry x="165.5" y="520" width="109" height="50" as="geometry" />
        </mxCell>
        <mxCell id="IoR6Snpq3EkC3o9elw1q-43" value="&lt;p style=&quot;margin: 0px ; margin-top: 6px ; text-align: center&quot;&gt;&lt;b&gt;Icon&lt;/b&gt;&lt;/p&gt;&lt;hr&gt;&lt;p style=&quot;margin: 0px ; margin-left: 8px&quot;&gt;&lt;br&gt;&lt;/p&gt;" style="align=left;overflow=fill;html=1;dropTarget=0;shadow=0;" vertex="1" parent="WIyWlLk6GJQsqaUBKTNV-1">
          <mxGeometry x="30" y="520" width="109" height="50" as="geometry" />
        </mxCell>
        <mxCell id="IoR6Snpq3EkC3o9elw1q-49" style="edgeStyle=orthogonalEdgeStyle;rounded=0;orthogonalLoop=1;jettySize=auto;html=1;exitX=0.5;exitY=1;exitDx=0;exitDy=0;entryX=1;entryY=0.5;entryDx=0;entryDy=0;" edge="1" parent="WIyWlLk6GJQsqaUBKTNV-1" source="IoR6Snpq3EkC3o9elw1q-46" target="IoR6Snpq3EkC3o9elw1q-1">
          <mxGeometry relative="1" as="geometry" />
        </mxCell>
        <mxCell id="IoR6Snpq3EkC3o9elw1q-50" style="edgeStyle=orthogonalEdgeStyle;rounded=0;orthogonalLoop=1;jettySize=auto;html=1;exitX=0.5;exitY=1;exitDx=0;exitDy=0;entryX=0;entryY=0.5;entryDx=0;entryDy=0;" edge="1" parent="WIyWlLk6GJQsqaUBKTNV-1" source="IoR6Snpq3EkC3o9elw1q-46" target="IoR6Snpq3EkC3o9elw1q-4">
          <mxGeometry relative="1" as="geometry" />
        </mxCell>
        <mxCell id="IoR6Snpq3EkC3o9elw1q-46" value="&lt;p style=&quot;margin: 0px ; margin-top: 6px ; text-align: center&quot;&gt;&lt;b&gt;Router&lt;/b&gt;&lt;/p&gt;&lt;hr&gt;&lt;p style=&quot;margin: 0px ; margin-left: 8px&quot;&gt;&lt;br&gt;&lt;/p&gt;" style="align=left;overflow=fill;html=1;dropTarget=0;" vertex="1" parent="WIyWlLk6GJQsqaUBKTNV-1">
          <mxGeometry x="315.5" y="90" width="109" height="50" as="geometry" />
        </mxCell>
        <mxCell id="IoR6Snpq3EkC3o9elw1q-51" value="&lt;p style=&quot;margin: 0px ; margin-top: 6px ; text-align: center&quot;&gt;&lt;b&gt;SearchInput&lt;/b&gt;&lt;/p&gt;&lt;hr&gt;&lt;p style=&quot;margin: 0px ; margin-left: 8px&quot;&gt;&lt;br&gt;&lt;/p&gt;" style="align=left;overflow=fill;html=1;dropTarget=0;" vertex="1" parent="WIyWlLk6GJQsqaUBKTNV-1">
          <mxGeometry x="698.5" y="160" width="109" height="50" as="geometry" />
        </mxCell>
        <mxCell id="IoR6Snpq3EkC3o9elw1q-64" style="edgeStyle=orthogonalEdgeStyle;rounded=0;orthogonalLoop=1;jettySize=auto;html=1;exitX=0.5;exitY=1;exitDx=0;exitDy=0;" edge="1" parent="WIyWlLk6GJQsqaUBKTNV-1" source="IoR6Snpq3EkC3o9elw1q-53" target="IoR6Snpq3EkC3o9elw1q-63">
          <mxGeometry relative="1" as="geometry" />
        </mxCell>
        <mxCell id="IoR6Snpq3EkC3o9elw1q-70" style="edgeStyle=orthogonalEdgeStyle;rounded=0;orthogonalLoop=1;jettySize=auto;html=1;exitX=0.5;exitY=1;exitDx=0;exitDy=0;entryX=0.5;entryY=0;entryDx=0;entryDy=0;" edge="1" parent="WIyWlLk6GJQsqaUBKTNV-1" source="IoR6Snpq3EkC3o9elw1q-53" target="IoR6Snpq3EkC3o9elw1q-69">
          <mxGeometry relative="1" as="geometry" />
        </mxCell>
        <mxCell id="IoR6Snpq3EkC3o9elw1q-53" value="&lt;p style=&quot;margin: 0px ; margin-top: 6px ; text-align: center&quot;&gt;&lt;b&gt;Profile&lt;/b&gt;&lt;/p&gt;&lt;hr&gt;&lt;p style=&quot;margin: 0px ; margin-left: 8px&quot;&gt;+ posts: Array&lt;/p&gt;&lt;p style=&quot;margin: 0px 0px 0px 8px&quot;&gt;+ users: Array&lt;/p&gt;&lt;p style=&quot;margin: 0px 0px 0px 8px&quot;&gt;+ currentUserId: number&lt;/p&gt;" style="align=left;overflow=fill;html=1;dropTarget=0;" vertex="1" parent="WIyWlLk6GJQsqaUBKTNV-1">
          <mxGeometry x="359" y="280" width="141" height="80" as="geometry" />
        </mxCell>
        <mxCell id="IoR6Snpq3EkC3o9elw1q-76" style="edgeStyle=orthogonalEdgeStyle;rounded=0;orthogonalLoop=1;jettySize=auto;html=1;exitX=0.5;exitY=1;exitDx=0;exitDy=0;entryX=0.5;entryY=0;entryDx=0;entryDy=0;" edge="1" parent="WIyWlLk6GJQsqaUBKTNV-1" source="IoR6Snpq3EkC3o9elw1q-54" target="IoR6Snpq3EkC3o9elw1q-75">
          <mxGeometry relative="1" as="geometry" />
        </mxCell>
        <mxCell id="IoR6Snpq3EkC3o9elw1q-78" style="edgeStyle=orthogonalEdgeStyle;rounded=0;orthogonalLoop=1;jettySize=auto;html=1;exitX=0.5;exitY=1;exitDx=0;exitDy=0;entryX=0.5;entryY=0;entryDx=0;entryDy=0;" edge="1" parent="WIyWlLk6GJQsqaUBKTNV-1" source="IoR6Snpq3EkC3o9elw1q-54" target="IoR6Snpq3EkC3o9elw1q-77">
          <mxGeometry relative="1" as="geometry" />
        </mxCell>
        <mxCell id="IoR6Snpq3EkC3o9elw1q-89" style="edgeStyle=orthogonalEdgeStyle;rounded=0;orthogonalLoop=1;jettySize=auto;html=1;exitX=0.5;exitY=1;exitDx=0;exitDy=0;entryX=0.5;entryY=0;entryDx=0;entryDy=0;" edge="1" parent="WIyWlLk6GJQsqaUBKTNV-1" source="IoR6Snpq3EkC3o9elw1q-54" target="IoR6Snpq3EkC3o9elw1q-88">
          <mxGeometry relative="1" as="geometry" />
        </mxCell>
        <mxCell id="IoR6Snpq3EkC3o9elw1q-54" value="&lt;p style=&quot;margin: 0px ; margin-top: 6px ; text-align: center&quot;&gt;&lt;b&gt;Communication&lt;/b&gt;&lt;/p&gt;&lt;hr&gt;&lt;p style=&quot;margin: 0px ; margin-left: 8px&quot;&gt;+ messages: Array&lt;/p&gt;&lt;p style=&quot;margin: 0px ; margin-left: 8px&quot;&gt;+ curentUserId: number&lt;br&gt;+ dialogs: Array&lt;br&gt;&lt;/p&gt;&lt;p style=&quot;margin: 0px 0px 0px 8px&quot;&gt;+ users: Array&lt;/p&gt;" style="align=left;overflow=fill;html=1;dropTarget=0;" vertex="1" parent="WIyWlLk6GJQsqaUBKTNV-1">
          <mxGeometry x="807.5" y="290" width="142.5" height="90" as="geometry" />
        </mxCell>
        <mxCell id="IoR6Snpq3EkC3o9elw1q-55" value="&lt;p style=&quot;margin: 0px ; margin-top: 6px ; text-align: center&quot;&gt;&lt;b&gt;Feed&lt;/b&gt;&lt;/p&gt;&lt;hr&gt;&lt;p style=&quot;margin: 0px ; margin-left: 8px&quot;&gt;&lt;br&gt;&lt;/p&gt;" style="align=left;overflow=fill;html=1;dropTarget=0;" vertex="1" parent="WIyWlLk6GJQsqaUBKTNV-1">
          <mxGeometry x="1127.5" y="290" width="109" height="50" as="geometry" />
        </mxCell>
        <mxCell id="IoR6Snpq3EkC3o9elw1q-56" value="&lt;p style=&quot;margin: 0px ; margin-top: 6px ; text-align: center&quot;&gt;&lt;b&gt;Music&lt;/b&gt;&lt;/p&gt;&lt;hr&gt;&lt;p style=&quot;margin: 0px ; margin-left: 8px&quot;&gt;&lt;br&gt;&lt;/p&gt;" style="align=left;overflow=fill;html=1;dropTarget=0;" vertex="1" parent="WIyWlLk6GJQsqaUBKTNV-1">
          <mxGeometry x="1277.5" y="290" width="109" height="50" as="geometry" />
        </mxCell>
        <mxCell id="IoR6Snpq3EkC3o9elw1q-57" value="&lt;p style=&quot;margin: 0px ; margin-top: 6px ; text-align: center&quot;&gt;&lt;b&gt;Settings&lt;/b&gt;&lt;/p&gt;&lt;hr&gt;&lt;p style=&quot;margin: 0px ; margin-left: 8px&quot;&gt;&lt;br&gt;&lt;/p&gt;" style="align=left;overflow=fill;html=1;dropTarget=0;" vertex="1" parent="WIyWlLk6GJQsqaUBKTNV-1">
          <mxGeometry x="1427.5" y="290" width="109" height="50" as="geometry" />
        </mxCell>
        <mxCell id="IoR6Snpq3EkC3o9elw1q-66" style="edgeStyle=orthogonalEdgeStyle;rounded=0;orthogonalLoop=1;jettySize=auto;html=1;exitX=0.5;exitY=1;exitDx=0;exitDy=0;entryX=0.5;entryY=0;entryDx=0;entryDy=0;" edge="1" parent="WIyWlLk6GJQsqaUBKTNV-1" source="IoR6Snpq3EkC3o9elw1q-63" target="IoR6Snpq3EkC3o9elw1q-65">
          <mxGeometry relative="1" as="geometry" />
        </mxCell>
        <mxCell id="IoR6Snpq3EkC3o9elw1q-63" value="&lt;p style=&quot;margin: 0px ; margin-top: 6px ; text-align: center&quot;&gt;&lt;b&gt;PostInput&lt;/b&gt;&lt;/p&gt;&lt;hr&gt;&lt;p style=&quot;margin: 0px 0px 0px 8px&quot;&gt;+ users: Array&lt;/p&gt;&lt;p style=&quot;margin: 0px 0px 0px 8px&quot;&gt;+ currentUserId: number&lt;/p&gt;" style="align=left;overflow=fill;html=1;dropTarget=0;" vertex="1" parent="WIyWlLk6GJQsqaUBKTNV-1">
          <mxGeometry x="320" y="400" width="148" height="70" as="geometry" />
        </mxCell>
        <mxCell id="IoR6Snpq3EkC3o9elw1q-65" value="&lt;p style=&quot;margin: 0px ; margin-top: 6px ; text-align: center&quot;&gt;&lt;b&gt;Avatar&lt;/b&gt;&lt;/p&gt;&lt;hr&gt;&lt;p style=&quot;margin: 0px 0px 0px 8px&quot;&gt;+ users: Array&lt;/p&gt;&lt;p style=&quot;margin: 0px 0px 0px 8px&quot;&gt;+ currentUserId: number&lt;/p&gt;&lt;p style=&quot;margin: 0px 0px 0px 8px&quot;&gt;- type: String&lt;/p&gt;" style="align=left;overflow=fill;html=1;dropTarget=0;" vertex="1" parent="WIyWlLk6GJQsqaUBKTNV-1">
          <mxGeometry x="314" y="510" width="160" height="80" as="geometry" />
        </mxCell>
        <mxCell id="IoR6Snpq3EkC3o9elw1q-72" style="edgeStyle=orthogonalEdgeStyle;rounded=0;orthogonalLoop=1;jettySize=auto;html=1;exitX=0.5;exitY=1;exitDx=0;exitDy=0;entryX=0.5;entryY=0;entryDx=0;entryDy=0;" edge="1" parent="WIyWlLk6GJQsqaUBKTNV-1" source="IoR6Snpq3EkC3o9elw1q-69" target="IoR6Snpq3EkC3o9elw1q-71">
          <mxGeometry relative="1" as="geometry" />
        </mxCell>
        <mxCell id="IoR6Snpq3EkC3o9elw1q-74" style="edgeStyle=orthogonalEdgeStyle;rounded=0;orthogonalLoop=1;jettySize=auto;html=1;exitX=0.5;exitY=1;exitDx=0;exitDy=0;entryX=0.5;entryY=0;entryDx=0;entryDy=0;" edge="1" parent="WIyWlLk6GJQsqaUBKTNV-1" source="IoR6Snpq3EkC3o9elw1q-69" target="IoR6Snpq3EkC3o9elw1q-73">
          <mxGeometry relative="1" as="geometry" />
        </mxCell>
        <mxCell id="IoR6Snpq3EkC3o9elw1q-69" value="&lt;p style=&quot;margin: 0px ; margin-top: 6px ; text-align: center&quot;&gt;&lt;b&gt;Posts&lt;/b&gt;&lt;/p&gt;&lt;hr&gt;&lt;p style=&quot;margin: 0px ; margin-left: 8px&quot;&gt;- message: String&lt;/p&gt;&lt;p style=&quot;margin: 0px ; margin-left: 8px&quot;&gt;- likeCount: Number&lt;/p&gt;&lt;p style=&quot;margin: 0px 0px 0px 8px&quot;&gt;+ users: Array&lt;/p&gt;&lt;p style=&quot;margin: 0px 0px 0px 8px&quot;&gt;+ currentUserId: number&lt;/p&gt;" style="align=left;overflow=fill;html=1;dropTarget=0;shadow=1;" vertex="1" parent="WIyWlLk6GJQsqaUBKTNV-1">
          <mxGeometry x="500" y="400" width="150" height="100" as="geometry" />
        </mxCell>
        <mxCell id="IoR6Snpq3EkC3o9elw1q-71" value="&lt;p style=&quot;margin: 0px ; margin-top: 6px ; text-align: center&quot;&gt;&lt;b&gt;Avatar&lt;/b&gt;&lt;/p&gt;&lt;hr&gt;&lt;p style=&quot;margin: 0px ; margin-left: 8px&quot;&gt;- type: String&lt;/p&gt;&lt;p style=&quot;margin: 0px 0px 0px 8px&quot;&gt;+ users: Array&lt;/p&gt;&lt;p style=&quot;margin: 0px 0px 0px 8px&quot;&gt;+ currentUserId: number&lt;/p&gt;" style="align=left;overflow=fill;html=1;dropTarget=0;" vertex="1" parent="WIyWlLk6GJQsqaUBKTNV-1">
          <mxGeometry x="490" y="570" width="150" height="80" as="geometry" />
        </mxCell>
        <mxCell id="IoR6Snpq3EkC3o9elw1q-73" value="&lt;p style=&quot;margin: 0px ; margin-top: 6px ; text-align: center&quot;&gt;&lt;b&gt;LikeButton&lt;/b&gt;&lt;/p&gt;&lt;hr&gt;&lt;p style=&quot;margin: 0px ; margin-left: 8px&quot;&gt;- likeCount: Number&lt;/p&gt;" style="align=left;overflow=fill;html=1;dropTarget=0;" vertex="1" parent="WIyWlLk6GJQsqaUBKTNV-1">
          <mxGeometry x="650" y="570" width="124" height="50" as="geometry" />
        </mxCell>
        <mxCell id="IoR6Snpq3EkC3o9elw1q-80" style="edgeStyle=orthogonalEdgeStyle;rounded=0;orthogonalLoop=1;jettySize=auto;html=1;exitX=0.5;exitY=1;exitDx=0;exitDy=0;entryX=0.5;entryY=0;entryDx=0;entryDy=0;" edge="1" parent="WIyWlLk6GJQsqaUBKTNV-1" source="IoR6Snpq3EkC3o9elw1q-75" target="IoR6Snpq3EkC3o9elw1q-79">
          <mxGeometry relative="1" as="geometry" />
        </mxCell>
        <mxCell id="IoR6Snpq3EkC3o9elw1q-75" value="&lt;p style=&quot;margin: 0px ; margin-top: 6px ; text-align: center&quot;&gt;&lt;b&gt;DialogMessages&lt;/b&gt;&lt;/p&gt;&lt;hr&gt;&lt;p style=&quot;margin: 0px ; margin-left: 8px&quot;&gt;+ currentUserId: number&lt;/p&gt;&lt;p style=&quot;margin: 0px ; margin-left: 8px&quot;&gt;- messages: Array&lt;/p&gt;&lt;p style=&quot;margin: 0px 0px 0px 8px&quot;&gt;+ users: Array&lt;/p&gt;" style="align=left;overflow=fill;html=1;dropTarget=0;" vertex="1" parent="WIyWlLk6GJQsqaUBKTNV-1">
          <mxGeometry x="789.25" y="450" width="150.75" height="80" as="geometry" />
        </mxCell>
        <mxCell id="IoR6Snpq3EkC3o9elw1q-82" style="edgeStyle=orthogonalEdgeStyle;rounded=0;orthogonalLoop=1;jettySize=auto;html=1;exitX=0.5;exitY=1;exitDx=0;exitDy=0;entryX=0.5;entryY=0;entryDx=0;entryDy=0;" edge="1" parent="WIyWlLk6GJQsqaUBKTNV-1" source="IoR6Snpq3EkC3o9elw1q-77" target="IoR6Snpq3EkC3o9elw1q-81">
          <mxGeometry relative="1" as="geometry" />
        </mxCell>
        <mxCell id="IoR6Snpq3EkC3o9elw1q-77" value="&lt;p style=&quot;margin: 0px ; margin-top: 6px ; text-align: center&quot;&gt;&lt;b&gt;Dialogs&lt;/b&gt;&lt;/p&gt;&lt;hr&gt;&lt;p style=&quot;margin: 0px ; margin-left: 8px&quot;&gt;- dialogs: Array&lt;/p&gt;" style="align=left;overflow=fill;html=1;dropTarget=0;" vertex="1" parent="WIyWlLk6GJQsqaUBKTNV-1">
          <mxGeometry x="990" y="450" width="124" height="50" as="geometry" />
        </mxCell>
        <mxCell id="IoR6Snpq3EkC3o9elw1q-87" style="edgeStyle=orthogonalEdgeStyle;rounded=0;orthogonalLoop=1;jettySize=auto;html=1;exitX=0.5;exitY=1;exitDx=0;exitDy=0;entryX=0.5;entryY=0;entryDx=0;entryDy=0;" edge="1" parent="WIyWlLk6GJQsqaUBKTNV-1" source="IoR6Snpq3EkC3o9elw1q-79" target="IoR6Snpq3EkC3o9elw1q-86">
          <mxGeometry relative="1" as="geometry" />
        </mxCell>
        <mxCell id="IoR6Snpq3EkC3o9elw1q-79" value="&lt;p style=&quot;margin: 0px ; margin-top: 6px ; text-align: center&quot;&gt;&lt;b&gt;UserMessage&lt;/b&gt;&lt;/p&gt;&lt;hr&gt;&lt;p style=&quot;margin: 0px ; margin-left: 8px&quot;&gt;- message: String&lt;/p&gt;&lt;p style=&quot;margin: 0px ; margin-left: 8px&quot;&gt;- currentUser: boolean&lt;/p&gt;&lt;p style=&quot;margin: 0px ; margin-left: 8px&quot;&gt;+ currentUserId: number&lt;/p&gt;&lt;p style=&quot;margin: 0px 0px 0px 8px&quot;&gt;+ users: Array&lt;/p&gt;" style="align=left;overflow=fill;html=1;dropTarget=0;shadow=1;" vertex="1" parent="WIyWlLk6GJQsqaUBKTNV-1">
          <mxGeometry x="790" y="580" width="150" height="100" as="geometry" />
        </mxCell>
        <mxCell id="IoR6Snpq3EkC3o9elw1q-84" style="edgeStyle=orthogonalEdgeStyle;rounded=0;orthogonalLoop=1;jettySize=auto;html=1;exitX=0.5;exitY=1;exitDx=0;exitDy=0;entryX=0.5;entryY=0;entryDx=0;entryDy=0;" edge="1" parent="WIyWlLk6GJQsqaUBKTNV-1" source="IoR6Snpq3EkC3o9elw1q-81" target="IoR6Snpq3EkC3o9elw1q-83">
          <mxGeometry relative="1" as="geometry" />
        </mxCell>
        <mxCell id="IoR6Snpq3EkC3o9elw1q-81" value="&lt;p style=&quot;margin: 0px ; margin-top: 6px ; text-align: center&quot;&gt;&lt;b&gt;DialogItem&lt;/b&gt;&lt;/p&gt;&lt;hr&gt;&lt;p style=&quot;margin: 0px ; margin-left: 8px&quot;&gt;- name: String&lt;/p&gt;&lt;p style=&quot;margin: 0px ; margin-left: 8px&quot;&gt;- id: Number&lt;/p&gt;" style="align=left;overflow=fill;html=1;dropTarget=0;shadow=1;" vertex="1" parent="WIyWlLk6GJQsqaUBKTNV-1">
          <mxGeometry x="990" y="530" width="124" height="70" as="geometry" />
        </mxCell>
        <mxCell id="IoR6Snpq3EkC3o9elw1q-83" value="&lt;p style=&quot;margin: 0px ; margin-top: 6px ; text-align: center&quot;&gt;&lt;b&gt;NavLink&lt;/b&gt;&lt;/p&gt;&lt;hr&gt;&lt;p style=&quot;margin: 0px ; margin-left: 8px&quot;&gt;&lt;br&gt;&lt;/p&gt;" style="align=left;overflow=fill;html=1;dropTarget=0;shadow=0;" vertex="1" parent="WIyWlLk6GJQsqaUBKTNV-1">
          <mxGeometry x="997.5" y="640" width="109" height="50" as="geometry" />
        </mxCell>
        <mxCell id="IoR6Snpq3EkC3o9elw1q-86" value="&lt;p style=&quot;margin: 0px ; margin-top: 6px ; text-align: center&quot;&gt;&lt;b&gt;Avatar&lt;/b&gt;&lt;/p&gt;&lt;hr&gt;&lt;p style=&quot;margin: 0px ; margin-left: 8px&quot;&gt;- currentUserId: number&lt;/p&gt;&lt;p style=&quot;margin: 0px ; margin-left: 8px&quot;&gt;- users: Array&lt;/p&gt;" style="align=left;overflow=fill;html=1;dropTarget=0;" vertex="1" parent="WIyWlLk6GJQsqaUBKTNV-1">
          <mxGeometry x="789.25" y="710" width="150" height="70" as="geometry" />
        </mxCell>
        <mxCell id="IoR6Snpq3EkC3o9elw1q-88" value="&lt;p style=&quot;margin: 0px ; margin-top: 6px ; text-align: center&quot;&gt;&lt;b&gt;MessageInput&lt;/b&gt;&lt;/p&gt;&lt;hr&gt;&lt;p style=&quot;margin: 0px ; margin-left: 8px&quot;&gt;&lt;br&gt;&lt;/p&gt;" style="align=left;overflow=fill;html=1;dropTarget=0;" vertex="1" parent="WIyWlLk6GJQsqaUBKTNV-1">
          <mxGeometry x="1140" y="450" width="124" height="50" as="geometry" />
        </mxCell>
      </root>
    </mxGraphModel>
  </diagram>
</mxfile>
